<svg id="Capa_1" enable-background="new 0 0 512 512" height="512" viewBox="0 0 512 512" width="512" xmlns="http://www.w3.org/2000/svg"><path id="XMLID_457_" d="m417.894 232.503c-3.831 0-7.608.236-11.32.684v-142.133h-80.101c-22.316 0-40.473 18.156-40.473 40.473v14.473h30v-14.473c0-5.775 4.698-10.473 10.473-10.473h50.101v34.197l-27.26 31.949h-156.329v-29.116h39.676v-30h-109.351v30h39.676v39.535l-29.37 43.602c-12.021-5.59-25.406-8.718-39.509-8.718-51.891 0-94.107 42.268-94.107 94.222s42.216 94.222 94.106 94.222c43.908 0 80.885-30.264 91.225-71.052l60.053 5.34 131.188-153.763v40.615c-31.233 15.347-52.787 47.518-52.787 84.638 0 51.954 42.217 94.222 94.107 94.222s94.108-42.268 94.108-94.222-42.216-94.222-94.106-94.222zm-216.836-15.303h122.661l-80.674 94.556zm-25.779 15.867 39.672 89.343-26.979-2.399c-1.722-24.368-12.74-46.204-29.516-61.97zm-33.901 50.329c8.444 9.238 14.23 20.948 16.14 33.908l-36.778-3.27zm-47.272 107.55c-35.349 0-64.106-28.81-64.106-64.222s28.758-64.221 64.106-64.221c7.89 0 15.447 1.444 22.434 4.067l-49.068 72.845 87.386 7.77c-8.55 25.407-32.544 43.761-60.752 43.761zm323.788 0c-35.349 0-64.107-28.81-64.107-64.222 0-22.536 11.657-42.383 29.237-53.848l20.722 58.831 28.297-9.967-20.746-58.899c2.169-.223 4.37-.339 6.598-.339 35.349 0 64.106 28.81 64.106 64.221-.001 35.414-28.759 64.223-64.107 64.223z"/></svg>